<svg xmlns="http://www.w3.org/2000/svg" viewBox="0 0 1200 630" width="1200" height="630">
  <!-- Background gradient -->
  <defs>
    <linearGradient id="bg" x1="0%" y1="0%" x2="100%" y2="100%">
      <stop offset="0%" style="stop-color:#6750A4;stop-opacity:1" />
      <stop offset="100%" style="stop-color:#381E72;stop-opacity:1" />
    </linearGradient>
    <filter id="shadow" x="-10%" y="-10%" width="130%" height="130%">
      <feDropShadow dx="0" dy="8" stdDeviation="16" flood-color="#000000" flood-opacity="0.3"/>
    </filter>
  </defs>
  
  <!-- Background -->
  <rect width="1200" height="630" fill="url(#bg)"/>
  
  <!-- Decorative circles -->
  <circle cx="1050" cy="80" r="200" fill="#7B61FF" opacity="0.1"/>
  <circle cx="150" cy="550" r="150" fill="#D0BCFF" opacity="0.08"/>
  
  <!-- Phone mockup -->
  <rect x="800" y="120" width="280" height="420" rx="32" fill="#1C1B1F" filter="url(#shadow)"/>
  <rect x="812" y="132" width="256" height="396" rx="24" fill="#1C1B1F"/>
  <rect x="820" y="140" width="240" height="380" rx="20" fill="#2B2930"/>
  
  <!-- Phone screen content -->
  <rect x="840" y="170" width="200" height="8" rx="4" fill="#6750A4"/>
  <rect x="840" y="190" width="160" height="6" rx="3" fill="#CAC4D0" opacity="0.6"/>
  <rect x="840" y="210" width="180" height="40" rx="12" fill="#6750A4" opacity="0.8"/>
  <rect x="840" y="260" width="200" height="30" rx="8" fill="#49454F"/>
  <rect x="840" y="300" width="200" height="30" rx="8" fill="#49454F"/>
  <rect x="840" y="340" width="200" height="30" rx="8" fill="#49454F"/>
  <rect x="840" y="400" width="200" height="50" rx="12" fill="#6750A4"/>
  
  <!-- Text content -->
  <text x="80" y="200" font-family="Arial, sans-serif" font-size="72" font-weight="800" fill="#FFFFFF">
    Photofacto
  </text>
  
  <text x="80" y="280" font-family="Arial, sans-serif" font-size="32" font-weight="600" fill="#D0BCFF">
    Devis signé, facture envoyée
  </text>
  
  <text x="80" y="330" font-family="Arial, sans-serif" font-size="32" font-weight="600" fill="#D0BCFF">
    client relancé
  </text>
  
  <!-- Tagline -->
  <text x="80" y="400" font-family="Arial, sans-serif" font-size="20" fill="#CAC4D0">
    L'app devis, factures et signature pour artisans
  </text>
  
  <!-- Badge -->
  <rect x="80" y="440" width="180" height="40" rx="20" fill="#D0BCFF" opacity="0.2"/>
  <text x="170" y="465" font-family="Arial, sans-serif" font-size="16" font-weight="700" fill="#EADDFF" text-anchor="middle">
    Essai gratuit 14 jours
  </text>
  
  <!-- URL -->
  <text x="80" y="540" font-family="Arial, sans-serif" font-size="24" fill="#938F99">
    photofacto.fr
  </text>
</svg>
